<svg width="91" height="88" viewBox="0 0 91 88" fill="none" xmlns="http://www.w3.org/2000/svg">
<path d="M45.2588 2C69.2032 2.00014 88.5166 20.8569 88.5166 44C88.5166 67.1431 69.2032 85.9999 45.2588 86C21.3142 86 2 67.1432 2 44C2 20.8568 21.3142 2 45.2588 2Z" fill="#020617" stroke="url(#paint0_linear_1032_1155)" stroke-width="4"/>
<path d="M25 53.4846C25 48.0565 29.4003 43.6563 34.8283 43.6563L45.2188 43.6563L45.2188 63.3129L34.8283 63.3129C29.4003 63.3129 25 58.9126 25 53.4846V53.4846Z" fill="#E7E8EA"/>
<path d="M45.2188 24L55.6093 24C61.0373 24 65.4376 28.4003 65.4376 33.8283V33.8283C65.4376 39.2563 61.0373 43.6566 55.6093 43.6566L45.2188 43.6566L45.2188 24Z" fill="#E7E8EA"/>
<defs>
<linearGradient id="paint0_linear_1032_1155" x1="45.2585" y1="0" x2="45.2585" y2="88" gradientUnits="userSpaceOnUse">
<stop stop-color="#A156F6"/>
<stop offset="1" stop-color="#6366F1"/>
</linearGradient>
</defs>
</svg>
